HIERARCHY
ROOT Hips
{
	OFFSET 0.00000 0.00000 0.00000
	CHANNELS 6 Xposition Yposition Zposition Zrotation Yrotation Xrotation 
	JOINT LHipJoint
	{
		OFFSET 0 0 0
		CHANNELS 3 Zrotation Yrotation Xrotation
		JOINT LeftUpLeg
		{
			OFFSET 1.81638 -1.86202 0.89635
			CHANNELS 3 Zrotation Yrotation Xrotation
			JOINT LeftLeg
			{
				OFFSET 2.63464 -7.23861 0.00000
				CHANNELS 3 Zrotation Yrotation Xrotation
				JOINT LeftFoot
				{
					OFFSET 2.45871 -6.75336 0.00000
					CHANNELS 3 Zrotation Yrotation Xrotation
					JOINT LeftToeBase
					{
						OFFSET 0.34235 -0.94059 2.20020
						CHANNELS 3 Zrotation Yrotation Xrotation
						End Site
						{
							OFFSET 0.00000 -0.00000 1.18611
						}
					}
				}
			}
		}
	}
	JOINT RHipJoint
	{
		OFFSET 0 0 0
		CHANNELS 3 Zrotation Yrotation Xrotation
		JOINT RightUpLeg
		{
			OFFSET -1.84405 -1.86203 0.89635
			CHANNELS 3 Zrotation Yrotation Xrotation
			JOINT RightLeg
			{
				OFFSET -2.71067 -7.44751 0.00000
				CHANNELS 3 Zrotation Yrotation Xrotation
				JOINT RightFoot
				{
					OFFSET -2.47159 -6.79060 0.00000
					CHANNELS 3 Zrotation Yrotation Xrotation
					JOINT RightToeBase
					{
						OFFSET -0.26223 -0.72048 2.36007
						CHANNELS 3 Zrotation Yrotation Xrotation
						End Site
						{
							OFFSET -0.00000 -0.00000 1.23343
						}
					}
				}
			}
		}
	}
	JOINT LowerBack
	{
		OFFSET 0 0 0
		CHANNELS 3 Zrotation Yrotation Xrotation
		JOINT Spine
		{
			OFFSET 0.02089 1.99248 -0.22512
			CHANNELS 3 Zrotation Yrotation Xrotation
			JOINT Spine1
			{
				OFFSET 0.01476 2.01356 -0.03079
				CHANNELS 3 Zrotation Yrotation Xrotation
				JOINT Neck
				{
					OFFSET 0 0 0
					CHANNELS 3 Zrotation Yrotation Xrotation
					JOINT Neck1
					{
						OFFSET 0.04846 1.65098 0.06663
						CHANNELS 3 Zrotation Yrotation Xrotation
						JOINT Head
						{
							OFFSET -0.06061 1.60634 -0.07565
							CHANNELS 3 Zrotation Yrotation Xrotation
							End Site
							{
								OFFSET -0.02954 1.73562 -0.03642
							}
						}
					}
				}
				JOINT LeftShoulder
				{
					OFFSET 0 0 0
					CHANNELS 3 Zrotation Yrotation Xrotation
					JOINT LeftArm
					{
						OFFSET 3.45234 1.47051 -0.06993
						CHANNELS 3 Zrotation Yrotation Xrotation
						JOINT LeftForeArm
						{
							OFFSET 5.49313 -0.00000 0.00000
							CHANNELS 3 Zrotation Yrotation Xrotation
							JOINT LeftHand
							{
								OFFSET 3.29037 -0.00000 0.00000
								CHANNELS 3 Zrotation Yrotation Xrotation
								JOINT LeftFingerBase
								{
									OFFSET 0 0 0
									CHANNELS 3 Zrotation Yrotation Xrotation
									JOINT LeftHandIndex1
									{
										OFFSET 0.72966 -0.00000 0.00000
										CHANNELS 3 Zrotation Yrotation Xrotation
										End Site
										{
											OFFSET 0.58827 -0.00000 0.00000
										}
									}
								}
								JOINT LThumb
								{
									OFFSET 0 0 0
									CHANNELS 3 Zrotation Yrotation Xrotation
									End Site
									{
										OFFSET 0.59725 -0.00000 0.59725
									}
								}
							}
						}
					}
				}
				JOINT RightShoulder
				{
					OFFSET 0 0 0
					CHANNELS 3 Zrotation Yrotation Xrotation
					JOINT RightArm
					{
						OFFSET -3.41935 1.44327 0.20453
						CHANNELS 3 Zrotation Yrotation Xrotation
						JOINT RightForeArm
						{
							OFFSET -5.23684 -0.00000 0.00000
							CHANNELS 3 Zrotation Yrotation Xrotation
							JOINT RightHand
							{
								OFFSET -3.38251 -0.00000 0.00000
								CHANNELS 3 Zrotation Yrotation Xrotation
								JOINT RightFingerBase
								{
									OFFSET 0 0 0
									CHANNELS 3 Zrotation Yrotation Xrotation
									JOINT RightHandIndex1
									{
										OFFSET -0.69145 -0.00000 0.00000
										CHANNELS 3 Zrotation Yrotation Xrotation
										End Site
										{
											OFFSET -0.55747 -0.00000 0.00000
										}
									}
								}
								JOINT RThumb
								{
									OFFSET 0 0 0
									CHANNELS 3 Zrotation Yrotation Xrotation
									End Site
									{
										OFFSET -0.56598 -0.00000 0.56598
									}
								}
							}
						}
					}
				}
			}
		}
	}
}
MOTION
Frames: 14
Frame Time: .0083333
-14.3687 16.0710 -2.3821 -120.5360 -86.2640 103.8790 0.0000 0.0000 0.0000 0.2001 11.8357 -3.6110 7.1790 15.4808 49.5482 2.6751 -19.8288 -30.6608 0.4835 -4.4589 -12.3714 0.0000 0.0000 0.0000 11.2392 -13.5155 -3.1419 -7.7898 -15.9625 51.8022 -3.1482 1.7178 -33.1941 -0.4815 4.4497 -12.3453 0.5231 0.0199 11.8293 0.5534 -0.0068 3.0921 0.2848 -0.0568 -3.3962 4.5252 -0.1777 -6.7649 -4.1670 -0.3786 6.2829 -2.2018 -0.2429 3.2321 -0.0000 0.0000 0.0000 -50.1066 -49.6506 11.0226 59.4895 -56.1724 -33.9167 -0.0000 -0.0000 6.7594 -29.2275 27.8808 -14.6625 -7.1250 0.0000 -0.0000 -56.2831 49.5951 -8.9653 -0.0000 0.0000 0.0000 53.5388 48.8887 4.9701 -52.6184 53.9985 -28.2791 0.0000 0.0000 22.0245 24.8267 -21.9416 -9.8076 7.1250 -0.0000 -0.0000 48.3707 -46.0019 -1.5768
-14.3738 16.0801 -2.3817 -121.4930 -86.2628 104.8170 0.0000 0.0000 0.0000 0.1609 11.8732 -3.4711 7.1322 15.4422 49.3724 2.6638 -19.7755 -30.5914 0.4779 -4.4335 -12.2994 0.0000 0.0000 0.0000 11.2099 -13.5112 -3.0442 -7.7478 -15.9306 51.6490 -3.1362 1.7455 -33.1217 -0.4758 4.4237 -12.2717 0.5381 0.0599 11.7610 0.5347 0.0484 3.0705 0.2488 -0.0288 -3.3814 4.5535 -0.1972 -6.6971 -4.1843 -0.4043 6.2487 -2.2125 -0.2551 3.2063 0.0000 0.0000 0.0000 -50.0335 -49.5713 10.9292 59.4074 -56.1500 -33.8485 -0.0000 -0.0000 6.6466 -29.2092 27.9641 -14.6905 -7.1250 0.0000 -0.0000 -56.3467 49.6555 -9.0926 0.0000 0.0000 0.0000 53.4336 48.6763 4.7309 -52.4945 53.9533 -28.1789 0.0000 0.0000 22.0762 24.8108 -22.0356 -9.8397 7.1250 -0.0000 -0.0000 48.4274 -46.0759 -1.6951
-14.3801 16.0870 -2.3893 -122.5830 -86.0981 105.8220 0.0000 0.0000 0.0000 0.3501 11.9498 -3.2551 7.0858 15.4037 49.1979 2.6555 -19.7182 -30.5363 0.4777 -4.4324 -12.2965 0.0000 0.0000 0.0000 11.4188 -13.3896 -2.8703 -7.7074 -15.8997 51.5017 -3.1240 1.6508 -33.0792 -0.4712 4.4024 -12.2116 0.5820 0.1091 11.7349 0.5830 0.1208 3.0656 0.2637 0.0070 -3.3722 4.5311 -0.2016 -6.5923 -4.1328 -0.4084 6.2123 -2.1891 -0.2549 3.1728 -0.0000 -0.0000 0.0000 -49.9639 -49.4223 10.7973 59.3783 -56.1420 -33.8243 -0.0000 -0.0000 6.5779 -29.1231 27.9737 -14.6453 -7.1250 0.0000 -0.0000 -56.2957 49.6769 -9.1162 -0.0000 -0.0000 0.0000 53.3527 48.4782 4.5999 -52.3761 53.9100 -28.0832 0.0000 0.0000 22.1699 24.7950 -22.0929 -9.8566 7.1250 -0.0000 -0.0000 48.4581 -46.1218 -1.7686
-14.3835 16.0950 -2.3881 -122.5810 -86.0589 105.8040 0.0000 0.0000 0.0000 0.3595 11.9250 -3.1425 7.0450 15.3696 49.0442 2.6504 -19.6188 -30.4871 0.4823 -4.4535 -12.3562 0.0000 0.0000 0.0000 11.4570 -13.4202 -2.7926 -7.6711 -15.8719 51.3690 -3.1122 1.6419 -33.0174 -0.4708 4.4007 -12.2068 0.6547 0.1187 11.6957 0.5828 0.1431 3.0432 0.2194 0.0182 -3.3738 4.5663 -0.2233 -6.5148 -4.1791 -0.4358 6.1353 -2.2101 -0.2690 3.1306 0.0000 0.0000 0.0000 -49.9666 -49.3531 10.6387 59.3127 -56.1240 -33.7699 -0.0000 -0.0000 6.5245 -29.1907 27.9726 -14.6838 -7.1250 0.0000 -0.0000 -56.3418 49.6645 -9.1074 0.0000 0.0000 0.0000 53.0721 48.3660 4.4019 -52.1619 53.8311 -27.9102 0.0000 0.0000 22.1483 24.8150 -22.1061 -9.8709 7.1250 -0.0000 -0.0000 48.4816 -46.1287 -1.7806
-14.3853 16.1063 -2.3785 -122.5760 -86.3318 105.8170 0.0000 0.0000 0.0000 -0.0656 11.7700 -3.0381 7.0015 15.3332 48.8802 2.6590 -19.3943 -30.4792 0.4808 -4.4466 -12.3367 0.0000 0.0000 0.0000 11.0927 -13.5495 -2.7408 -7.6383 -15.8466 51.2491 -3.1016 1.7390 -32.9345 -0.4687 4.3911 -12.1796 0.5460 0.0973 11.6343 0.4764 0.0998 3.0128 0.1761 -0.0017 -3.3720 4.4997 -0.2035 -6.5377 -4.1342 -0.4066 6.1705 -2.1822 -0.2545 3.1479 0.0000 -0.0000 0.0000 -49.9128 -49.2691 10.4726 59.2727 -56.1130 -33.7366 -0.0000 -0.0000 6.4466 -29.2277 28.0374 -14.7351 -7.1250 0.0000 -0.0000 -56.4269 49.7026 -9.2011 0.0000 -0.0000 0.0000 52.9003 48.2328 4.2783 -52.0029 53.7721 -27.7819 0.0000 0.0000 22.2211 24.8656 -22.1318 -9.9041 7.1250 -0.0000 -0.0000 48.5358 -46.1405 -1.8024
-14.3869 16.1121 -2.3761 -123.5430 -86.3290 106.7890 0.0000 0.0000 0.0000 -0.1580 11.7177 -2.9351 6.9681 15.3050 48.7536 2.6646 -19.2183 -30.4679 0.4867 -4.4732 -12.4119 0.0000 0.0000 0.0000 11.0653 -13.5265 -2.7121 -7.6108 -15.8254 51.1483 -3.0850 1.7050 -32.8526 -0.4741 4.4158 -12.2494 0.5514 0.1118 11.5799 0.4700 0.1209 2.9815 0.1634 0.0094 -3.3747 4.4918 -0.1821 -6.4506 -4.1342 -0.3748 6.1174 -2.1773 -0.2384 3.1145 0.0000 0.0000 0.0000 -49.8750 -49.1375 10.3072 59.2852 -56.1164 -33.7470 -0.0000 -0.0000 6.3717 -29.3148 28.0576 -14.7947 -7.1250 0.0000 -0.0000 -56.5058 49.7013 -9.2222 0.0000 0.0000 0.0000 52.7361 48.1379 4.2020 -51.8056 53.6983 -27.6228 0.0000 0.0000 22.2367 24.8998 -22.1890 -9.9431 7.1250 -0.0000 -0.0000 48.6014 -46.1786 -1.8661
-14.3884 16.1177 -2.3746 -123.9490 -86.3024 107.1710 0.0000 0.0000 0.0000 -0.1875 11.6648 -2.8276 6.9412 15.2822 48.6517 2.6609 -19.0921 -30.4211 0.4846 -4.4640 -12.3859 0.0000 0.0000 0.0000 11.0762 -13.5214 -2.6574 -7.5847 -15.8051 51.0525 -3.0723 1.7024 -32.7833 -0.4740 4.4155 -12.2486 0.5914 0.1161 11.5525 0.4730 0.1309 2.9890 0.1426 0.0142 -3.3517 4.5592 -0.1693 -6.4341 -4.2758 -0.3541 6.0739 -2.2358 -0.2318 3.0989 0.0000 -0.0000 0.0000 -49.7470 -49.0536 10.1016 59.3489 -56.1339 -33.7999 -0.0000 -0.0000 6.3060 -29.2769 28.1424 -14.8120 -7.1250 0.0000 -0.0000 -56.5577 49.7660 -9.3545 0.0000 -0.0000 0.0000 52.4707 48.1281 4.0766 -51.5974 53.6198 -27.4551 0.0000 0.0000 22.2276 24.8750 -22.1641 -9.9217 7.1250 -0.0000 -0.0000 48.5658 -46.1635 -1.8401
-14.3925 16.1235 -2.3786 -124.2790 -86.1526 107.4570 0.0000 0.0000 0.0000 -0.0111 11.7228 -2.7253 6.9228 15.2665 48.5816 2.6623 -19.0698 -30.4236 0.4856 -4.4685 -12.3987 0.0000 0.0000 0.0000 11.2631 -13.4597 -2.5635 -7.5627 -15.7880 50.9718 -3.0623 1.6292 -32.7467 -0.4730 4.4111 -12.2361 0.7130 0.1417 11.6237 0.4995 0.1839 2.9103 0.0940 0.0404 -3.4723 4.4734 -0.1646 -6.3827 -4.1732 -0.3442 6.1372 -2.1852 -0.2247 3.1099 -0.0000 0.0000 0.0000 -49.7590 -48.8772 10.1408 59.4527 -56.1623 -33.8861 -0.0000 -0.0000 6.2584 -29.2265 28.1210 -14.7729 -7.1250 0.0000 -0.0000 -56.5030 49.7600 -9.3273 -0.0000 0.0000 0.0000 52.3293 47.9126 4.0926 -51.5285 53.5937 -27.3996 0.0000 0.0000 22.2165 24.9087 -22.2396 -9.9682 7.1250 -0.0000 -0.0000 48.6445 -46.2155 -1.9265
-14.3939 16.1256 -2.3810 -124.4520 -85.9135 107.5800 0.0000 0.0000 0.0000 0.2529 11.7578 -2.6347 6.9130 15.2582 48.5443 2.6681 -19.0128 -30.4403 0.4941 -4.5068 -12.5071 0.0000 0.0000 0.0000 11.5510 -13.3650 -2.4790 -7.5432 -15.7728 50.9002 -3.0523 1.5278 -32.7180 -0.4738 4.4146 -12.2461 0.9125 0.1613 11.6085 0.5649 0.2340 2.9395 0.0424 0.0636 -3.4326 4.4727 -0.1798 -6.4109 -4.1835 -0.3657 6.0767 -2.1889 -0.2360 3.0936 -0.0000 -0.0000 0.0000 -49.6279 -48.8175 10.0023 59.5403 -56.1862 -33.9589 -0.0000 -0.0000 6.2044 -29.1222 28.1393 -14.7211 -7.1250 0.0000 -0.0000 -56.4474 49.7907 -9.3658 -0.0000 -0.0000 0.0000 52.1465 47.9086 3.9570 -51.3900 53.5410 -27.2882 0.0000 0.0000 22.2604 24.9626 -22.2309 -9.9886 7.1250 -0.0000 -0.0000 48.6760 -46.2007 -1.9054
-14.3938 16.1279 -2.3754 -124.7190 -86.0581 107.8390 0.0000 0.0000 0.0000 0.0063 11.6390 -2.5623 6.9009 15.2479 48.4986 2.6830 -18.8409 -30.4796 0.4960 -4.5155 -12.5316 0.0000 0.0000 0.0000 11.3340 -13.4486 -2.4604 -7.5307 -15.7630 50.8541 -3.0482 1.6007 -32.6763 -0.4725 4.4085 -12.2289 0.8468 0.1456 11.5682 0.5138 0.2032 2.9471 0.0307 0.0489 -3.4028 4.4598 -0.1670 -6.3753 -4.1858 -0.3469 6.0117 -2.1849 -0.2269 3.0654 0.0000 0.0000 0.0000 -49.5148 -48.7037 9.8574 59.7177 -56.2342 -34.1063 -0.0000 -0.0000 6.2608 -29.0536 28.0967 -14.6619 -7.1250 0.0000 -0.0000 -56.3604 49.7734 -9.3086 0.0000 0.0000 0.0000 51.8970 47.9372 3.8740 -51.2437 53.4849 -27.1705 0.0000 0.0000 22.2087 24.9328 -22.2385 -9.9785 7.1250 -0.0000 -0.0000 48.6608 -46.2111 -1.9207
-14.3926 16.1278 -2.3747 -124.6890 -85.9914 107.7730 0.0000 0.0000 0.0000 0.0479 11.5702 -2.4929 6.8981 15.2455 48.4878 2.6902 -18.7462 -30.4959 0.4956 -4.5135 -12.5259 0.0000 0.0000 0.0000 11.4036 -13.4364 -2.4176 -7.5241 -15.7578 50.8298 -3.0467 1.5853 -32.6725 -0.4737 4.4141 -12.2448 0.8911 0.1339 11.5493 0.5442 0.1918 2.9867 0.0391 0.0426 -3.3512 4.4803 -0.0806 -6.2944 -4.1818 -0.2327 5.8697 -2.1790 -0.1689 3.0072 0.0000 0.0000 0.0000 -49.3621 -48.6787 9.6407 59.7661 -56.2473 -34.1465 -0.0000 -0.0000 6.3279 -28.9823 28.1036 -14.6239 -7.1250 0.0000 -0.0000 -56.3170 49.7905 -9.3263 0.0000 0.0000 0.0000 51.7169 48.0117 3.8020 -51.1700 53.4566 -27.1114 0.0000 0.0000 22.2306 24.8879 -22.2299 -9.9549 7.1250 -0.0000 -0.0000 48.6229 -46.2115 -1.9188
-14.3929 16.1273 -2.3733 -125.1260 -85.9645 108.1510 0.0000 0.0000 0.0000 0.0390 11.5488 -2.3918 6.8922 15.2404 48.4653 2.7024 -18.6362 -30.5355 0.4986 -4.5271 -12.5646 0.0000 0.0000 0.0000 11.4021 -13.4150 -2.3467 -7.5233 -15.7572 50.8268 -3.0478 1.5981 -32.6749 -0.4681 4.3881 -12.1713 0.9160 0.1341 11.5398 0.5521 0.1922 3.0439 0.0333 0.0420 -3.2862 4.4598 -0.0551 -6.3725 -4.2058 -0.1984 5.8359 -2.1823 -0.1539 3.0124 -0.0000 -0.0000 0.0000 -49.1990 -48.6294 9.4751 59.9112 -56.2862 -34.2672 -0.0000 -0.0000 6.3928 -28.9520 28.0984 -14.6041 -7.1250 0.0000 -0.0000 -56.2912 49.7922 -9.3217 -0.0000 -0.0000 0.0000 51.5430 48.0963 3.6863 -51.1140 53.4350 -27.0664 0.0000 0.0000 22.2662 24.8570 -22.1591 -9.9116 7.1250 -0.0000 -0.0000 48.5496 -46.1625 -1.8376
-14.3910 16.1245 -2.3716 -125.5980 -85.9568 108.5910 0.0000 0.0000 0.0000 0.0026 11.4993 -2.3360 6.8943 15.2422 48.4733 2.7122 -18.5736 -30.5723 0.4913 -4.4943 -12.4715 0.0000 0.0000 0.0000 11.3866 -13.3834 -2.3215 -7.5256 -15.7590 50.8352 -3.0481 1.5803 -32.6813 -0.4757 4.4234 -12.2710 0.9192 0.1374 11.5314 0.5641 0.1951 3.0868 0.0436 0.0429 -3.2370 4.4201 -0.0497 -6.4242 -4.2075 -0.1900 5.7944 -2.1752 -0.1512 3.0082 -0.0000 -0.0000 0.0000 -49.0783 -48.6617 9.2933 59.9420 -56.2945 -34.2929 -0.0000 -0.0000 6.4619 -28.9614 27.9846 -14.5575 -7.1250 0.0000 -0.0000 -56.1934 49.7125 -9.1499 -0.0000 -0.0000 0.0000 51.3337 48.1802 3.5811 -51.0695 53.4179 -27.0307 0.0000 0.0000 22.2248 24.7456 -22.1785 -9.8702 7.1250 -0.0000 -0.0000 48.4855 -46.1943 -1.8831
-14.3892 16.1231 -2.3693 -126.2630 -86.0157 109.2400 0.0000 0.0000 0.0000 -0.1124 11.4649 -2.3036 6.8971 15.2446 48.4842 2.7226 -18.4706 -30.6047 0.4972 -4.5208 -12.5468 0.0000 0.0000 0.0000 11.2906 -13.3498 -2.3099 -7.5337 -15.7653 50.8650 -3.0541 1.6267 -32.7025 -0.4676 4.3860 -12.1652 0.8763 0.1396 11.5402 0.5398 0.1915 3.1039 0.0430 0.0411 -3.2241 4.5440 -0.0877 -6.4024 -4.3777 -0.2421 5.6815 -2.2557 -0.1804 2.9653 0.0000 -0.0000 0.0000 -48.9429 -48.6143 9.2044 60.0677 -56.3279 -34.3974 -0.0000 -0.0000 6.4844 -28.9037 28.0076 -14.5348 -7.1250 0.0000 -0.0000 -56.1742 49.7382 -9.1903 0.0000 -0.0000 0.0000 51.1859 48.2508 3.4981 -51.0656 53.4163 -27.0275 0.0000 0.0000 22.2145 24.6877 -22.1665 -9.8395 7.1250 -0.0000 -0.0000 48.4361 -46.1941 -1.8796
